<?xml version="1.0" encoding="utf-8"?>
<!-- Generator: Adobe Illustrator 17.1.0, SVG Export Plug-In . SVG Version: 6.00 Build 0)  -->
<!DOCTYPE svg PUBLIC "-//W3C//DTD SVG 1.1//EN" "http://www.w3.org/Graphics/SVG/1.1/DTD/svg11.dtd">
<svg version="1.1" id="Layer_1" xmlns="http://www.w3.org/2000/svg" xmlns:xlink="http://www.w3.org/1999/xlink" x="0px" y="0px"
	 viewBox="0 0 72 72" enable-background="new 0 0 72 72" xml:space="preserve">
<path d="M20.2,65.1h34.4c0,0,0.8-12.5-7-17L37.2,58.8L26.6,48.1C26.6,48.1,19,51.1,20.2,65.1z"/>
<path d="M37.2,47.8c-8.5,0-15.4-6.9-15.4-15.4S28.7,17,37.2,17s15.4,6.9,15.4,15.4S45.7,47.8,37.2,47.8z M37.2,18.6
	c-7.6,0-13.7,6.2-13.7,13.7S29.7,46,37.2,46s13.7-6.2,13.7-13.7S44.8,18.6,37.2,18.6z"/>
<circle cx="42.1" cy="30.7" r="1.3"/>
<circle cx="32.3" cy="30.7" r="1.3"/>
<path d="M36.2,53.6L36.2,53.6c-0.7-0.7-0.6-1.8,0-2.4l0,0c0.7-0.7,1.8-0.6,2.4,0.1l0,0c0.7,0.7,0.6,1.8-0.1,2.4l0,0
	C37.9,54.3,36.8,54.3,36.2,53.6z"/>
<path d="M38.2,60.8h-1.6c-0.7,0-1.2-0.6-1.1-1.3l0.8-6.1c0.1-0.6,0.5-1,1.1-1l0,0c0.6,0,1,0.4,1.1,1l0.8,6.1
	C39.4,60.2,38.9,60.8,38.2,60.8z"/>
<path d="M46.1,33.5h-7.9V28h7.9V33.5z M39.3,32.4H45v-3.3h-5.7V32.4z"/>
<path d="M36.3,33.5h-7.9V28h7.9V33.5z M29.5,32.4h5.7v-3.3h-5.7V32.4z"/>
<rect x="35.7" y="30.2" width="3" height="1.1"/>
<path fill="#19181C" d="M37.5,17.7c5.1,0,9.6,2.6,12.2,6.6c-0.8-2-1.3-4.1-1.8-6.2c-0.3-1.5-1.3-3-2.6-4.1c-0.7,0.7-0.9,1.8-2,2.2
	c-2.2-2.4-4-5.2-7.1-6.8c-0.4,0.8-0.6,1.7-1.1,2.3c-1.1,1.4-2.1,3.1-3.5,3.8c-1.2,0.6-1.6-1.9-3.1-2.2c-1.5,4.4-3.1,8.7-4.5,13h0.3
	C26.5,21.2,31.6,17.7,37.5,17.7z"/>
<rect x="33" y="39.5" width="8.7" height="1.1"/>
</svg>
