<?xml version="1.0" encoding="utf-8"?>
<!-- Generator: Adobe Illustrator 17.1.0, SVG Export Plug-In . SVG Version: 6.00 Build 0)  -->
<!DOCTYPE svg PUBLIC "-//W3C//DTD SVG 1.1//EN" "http://www.w3.org/Graphics/SVG/1.1/DTD/svg11.dtd">
<svg version="1.1" id="Layer_1" xmlns="http://www.w3.org/2000/svg" xmlns:xlink="http://www.w3.org/1999/xlink" x="0px" y="0px"
	 viewBox="0 0 72 72" enable-background="new 0 0 72 72" xml:space="preserve">
<path d="M417.7,407h60.7c0,0,1.3-22-12.3-30c0,0-12.8,10.3-18,10.3c-5.4,0.1-19-10.3-19-10.3S415.7,382.3,417.7,407z"/>
<path d="M447.8,376.5c-15,0-27.2-12.2-27.2-27.2c0-15,12.2-27.2,27.2-27.2s27.2,12.2,27.2,27.2C474.9,364.3,462.7,376.5,447.8,376.5
	z M447.8,325.2c-13.3,0-24.2,10.8-24.2,24.2s10.8,24.2,24.2,24.2s24.2-10.8,24.2-24.2S461.1,325.2,447.8,325.2z"/>
<circle cx="456.4" cy="346.3" r="2.3"/>
<circle cx="439.1" cy="346.3" r="2.3"/>
<path d="M435,328.5c3.3-1.8,8.2-3.8,11.9-4.1c8-0.6,15.8,3.8,21.8,8.3c-0.8-6.9-12.3-15.8-12.3-15.8c0.7,3.3-1.2,3.8-1.2,3.8
	C448.8,311,434,315,434,315c10.7,2.7,0.3,11.5,0.3,11.5"/>
<path d="M456.6,365.8c-2.4,1.5-3.3,3.6-6.5,3.5c-0.7,0-1.5-0.1-2.2,0c-0.7-0.1-1.5,0-2.2,0c-3.2,0.1-4.4-2-6.5-3.5
	c-1.5,3.1,0.9,5.7,5.1,6.6c0.3,0,1.1,0.3,1.5,0.3c0.7,0,1.5,0.3,2.1,0.2c0.6,0.1,1.4-0.1,2.1-0.2c0.3,0,1.1-0.3,1.5-0.3
	C455.7,371.5,458.3,367.8,456.6,365.8z"/>
<rect x="440.3" y="362" width="15.3" height="2"/>
<path d="M17.8,65.2h36.4c0,0,0.8-13.2-7.4-18c0,0-7.7,6.2-10.8,6.2c-3.2,0-11.4-6.2-11.4-6.2S16.6,50.4,17.8,65.2z"/>
<path d="M35.9,46.9c-9,0-16.3-7.3-16.3-16.3c0-9,7.3-16.3,16.3-16.3s16.3,7.3,16.3,16.3C52.2,39.6,44.8,46.9,35.9,46.9z M35.9,16.1
	c-8,0-14.5,6.5-14.5,14.5s6.5,14.5,14.5,14.5s14.5-6.5,14.5-14.5S43.9,16.1,35.9,16.1z"/>
<circle cx="41.1" cy="28.8" r="1.4"/>
<circle cx="30.7" cy="28.8" r="1.4"/>
<path d="M28.2,18.1c2-1.1,4.9-2.3,7.2-2.5c4.8-0.3,9.5,2.3,13.1,5c-0.5-4.2-7.4-9.5-7.4-9.5c0.4,2-0.7,2.3-0.7,2.3
	C36.5,7.6,27.6,10,27.6,10c6.4,1.6,0.2,6.9,0.2,6.9"/>
<path d="M41.2,40.4c-1.4,0.9-2,2.2-3.9,2.1c-0.4,0-0.9-0.1-1.3,0c-0.4-0.1-0.9,0-1.3,0c-1.9,0.1-2.7-1.2-3.9-2.1
	c-0.9,1.8,0.6,3.4,3.1,4c0.2,0,0.7,0.2,0.9,0.2c0.4,0,0.9,0.2,1.3,0.1c0.4,0.1,0.8-0.1,1.3-0.1c0.2,0,0.7-0.2,0.9-0.2
	C40.6,43.9,42.2,41.7,41.2,40.4z"/>
<rect x="31.4" y="38.1" width="9.2" height="1.2"/>
</svg>
