<?xml version="1.0" encoding="utf-8"?>
<!-- Generator: Adobe Illustrator 17.1.0, SVG Export Plug-In . SVG Version: 6.00 Build 0)  -->
<!DOCTYPE svg PUBLIC "-//W3C//DTD SVG 1.1//EN" "http://www.w3.org/Graphics/SVG/1.1/DTD/svg11.dtd">
<svg version="1.1" id="Layer_1" xmlns="http://www.w3.org/2000/svg" xmlns:xlink="http://www.w3.org/1999/xlink" x="0px" y="0px"
	 viewBox="0 0 72 72" enable-background="new 0 0 72 72" xml:space="preserve">
<path fill="#19181C" d="M36.9,14.4c5.3,0,10,3.1,12.7,5.8c-0.8-1.3-1.4-4.1-1.9-5.5c-0.3-1-1.4-2-2.7-2.7c-0.8,0.5-0.9,1.2-2.1,1.5
	c-2.3-1.6-4.2-3.5-7.4-4.6c-0.4,0.6-0.7,1.1-1.2,1.5c-1.1,0.9-2.2,2.1-3.7,2.5c-1.3,0.4-1.7-1.3-3.3-1.5c-1.6,3-3,5.8-4.5,8.7
	C25.4,16.8,30.8,14.4,36.9,14.4z"/>
<path d="M17.7,65h37.5c0,0,0.8-13.6-7.6-18.6c0,0-7.9,6.4-11.1,6.4c-3.3,0-11.8-6.4-11.8-6.4S16.4,49.7,17.7,65z"/>
<path d="M36.2,46.1c-9.3,0-16.8-7.5-16.8-16.8S27,12.5,36.2,12.5S53,20.1,53,29.3S45.5,46.1,36.2,46.1z M36.2,14.4
	c-8.2,0-15,6.7-15,15s6.7,15,15,15s15-6.7,15-15S44.5,14.4,36.2,14.4z"/>
<circle cx="41.6" cy="27.5" r="1.4"/>
<circle cx="30.9" cy="27.5" r="1.4"/>
<rect x="31.6" y="37.1" width="9.5" height="1.2"/>
</svg>
