<?xml version="1.0" encoding="utf-8"?>
<!-- Generator: Adobe Illustrator 17.1.0, SVG Export Plug-In . SVG Version: 6.00 Build 0)  -->
<!DOCTYPE svg PUBLIC "-//W3C//DTD SVG 1.1//EN" "http://www.w3.org/Graphics/SVG/1.1/DTD/svg11.dtd">
<svg version="1.1" id="Layer_1" xmlns="http://www.w3.org/2000/svg" xmlns:xlink="http://www.w3.org/1999/xlink" x="0px" y="0px"
	 viewBox="0 0 72 72" enable-background="new 0 0 72 72" xml:space="preserve">
<path d="M18.4,65.3h39.2c0,0,0.9-14.2-8-19.4L37.8,58.2L25.8,45.9C25.8,45.9,17.1,49.4,18.4,65.3z"/>
<path d="M37.8,45.6c-9.7,0-17.6-7.9-17.6-17.6c0-9.7,7.9-17.6,17.6-17.6S55.4,18.3,55.4,28C55.4,37.7,47.5,45.6,37.8,45.6z
	 M37.8,12.4c-8.6,0-15.6,7-15.6,15.6s7,15.6,15.6,15.6c8.6,0,15.6-7,15.6-15.6S46.4,12.4,37.8,12.4z"/>
<circle cx="43.4" cy="26.1" r="1.5"/>
<circle cx="32.2" cy="26.1" r="1.5"/>
<path d="M48.1,29.3h-9V23h9V29.3z M40.4,28h6.4v-3.7h-6.4V28z"/>
<path d="M36.9,29.3h-9V23h9V29.3z M29.2,28h6.4v-3.7h-6.4V28z"/>
<rect x="36.2" y="25.5" width="3.5" height="1.3"/>
<path d="M38.5,15c0,0-6.9,10.6-11.7,11.6c0,0-1.6,7.2,7,20.9c0,0-18.6-10-11.9-26.5C27.1,8.2,37.4,7.6,43.8,10.7
	c6.4,3.1,16.5,10.9,11.1,29.8c-4.3,15.1-2.3,8.1,0.5,13.5c2.2,4.3-18.9,2.9-7.5-14.3c0,0,4.9-5.5,1.4-11C45,22.1,38.5,15,38.5,15z"
	/>
<rect x="33" y="36.2" width="9.9" height="1.3"/>
</svg>
