<?xml version="1.0" encoding="utf-8"?>
<!-- Generator: Adobe Illustrator 17.1.0, SVG Export Plug-In . SVG Version: 6.00 Build 0)  -->
<!DOCTYPE svg PUBLIC "-//W3C//DTD SVG 1.1//EN" "http://www.w3.org/Graphics/SVG/1.1/DTD/svg11.dtd">
<svg version="1.1" id="Layer_1" xmlns="http://www.w3.org/2000/svg" xmlns:xlink="http://www.w3.org/1999/xlink" x="0px" y="0px"
	 viewBox="0 0 72 72" enable-background="new 0 0 72 72" xml:space="preserve">
<path d="M15.2,65.1h40.1c0,0,0.9-14.5-8.2-19.8l-7,8c-5.4,6.6-8.1,3.2-11.2,0.1l-6.2-8.1C22.7,45.3,13.9,48.8,15.2,65.1z"/>
<path d="M35,45c-9.9,0-17.9-8.1-17.9-17.9S25.1,9.1,35,9.1S53,17.1,53,27S44.9,45,35,45z M35,11c-8.8,0-16,7.2-16,16s7.2,16,16,16
	c8.8,0,16-7.2,16-16S43.8,11,35,11z"/>
<circle cx="40.7" cy="25" r="1.5"/>
<circle cx="29.3" cy="25" r="1.5"/>
<rect x="30.1" y="35.4" width="10.1" height="1.3"/>
<path d="M51.9,20.8C47.9,11,41,8.2,35,8.8c-6-0.6-12.8,2.2-16.9,12c-6.9,16.9,12.1,27.1,12.1,27.1c-8.8-14.1-7.1-21.4-7.1-21.4
	c4.6-0.9,11-10.3,11.9-11.7c0.9,1.3,7.3,10.7,11.9,11.7c0,0,1.7,7.3-7.1,21.4C39.8,47.9,58.8,37.7,51.9,20.8z"/>
<path d="M45.6,33.2c-0.2,1-1.2,4.3-6.1,8.7c0,0,9.8-2.2,9.2-10.5L45.6,33.2z"/>
<path d="M25.2,32.5c0.2,1,1.2,4.3,6.1,8.7c0,0-9.8-2.2-9.2-10.5L25.2,32.5z"/>
<path d="M49.1,28.5c-0.1,1.4,0,5.9,4.7,13.5c0,0-11.9-6.4-8.2-16.9L49.1,28.5z"/>
<path d="M48.8,37.2c-0.1,0.9,0,3.8,3,8.6c0,0-7.6-4.1-5.2-10.8L48.8,37.2z"/>
<path d="M46.9,38.3c-0.1,0.9,0,3.8,3,8.6c0,0-7.6-4.1-5.2-10.8L46.9,38.3z"/>
<path d="M21.1,37.2c0.1,0.9,0,3.8-3,8.6c0,0,7.6-4.1,5.2-10.8L21.1,37.2z"/>
<path d="M22.8,38.8c0.1,0.9,0,3.8-3,8.6c0,0,7.6-4.1,5.2-10.8L22.8,38.8z"/>
<path d="M23.8,26.7c0.2,0.9,0.5,3.8-1.7,8.9c0,0,6.9-5.1,3.6-11.5L23.8,26.7z"/>
<path d="M50.7,22.5c0.5,0.7,2,3.2,2,8.9c0,0,4.3-7.5-1.3-11.9L50.7,22.5z"/>
<path d="M47.6,16.4c0.8,0.5,3.1,2.3,5.1,7.5c0,0,1.2-8.5-5.6-10.6L47.6,16.4z"/>
<path d="M19.4,22.5c-0.5,0.7-2,3.2-2,8.9c0,0-4.3-7.5,1.3-11.9L19.4,22.5z"/>
<path d="M47.9,27c-0.5,0.7-2,3.2-2,8.9c0,0-4.3-7.5,1.3-11.9L47.9,27z"/>
<path d="M38.1,15.8c0.3,0.9,1.4,3.6,5.9,7c0,0-8.5-1.1-8.7-8.3L38.1,15.8z"/>
<path d="M32.7,15.1c-0.3,0.9-1.4,3.6-5.9,7c0,0,8.5-1.1,8.7-8.3L32.7,15.1z"/>
<path d="M22.5,16.4c-0.8,0.5-3.1,2.3-5.1,7.5c0,0-1.2-8.5,5.6-10.6L22.5,16.4z"/>
<path d="M21.7,28c0.1,1.4,0,5.9-4.7,13.5c0,0,11.9-6.4,8.2-16.9L21.7,28z"/>
</svg>
