<?xml version="1.0" encoding="utf-8"?>
<!-- Generator: Adobe Illustrator 17.1.0, SVG Export Plug-In . SVG Version: 6.00 Build 0)  -->
<!DOCTYPE svg PUBLIC "-//W3C//DTD SVG 1.1//EN" "http://www.w3.org/Graphics/SVG/1.1/DTD/svg11.dtd">
<svg version="1.1" id="Layer_1" xmlns="http://www.w3.org/2000/svg" xmlns:xlink="http://www.w3.org/1999/xlink" x="0px" y="0px"
	 viewBox="0 0 72 72" enable-background="new 0 0 72 72" xml:space="preserve">
<path d="M46.6,19.3c-0.3,0.6-0.4,0.9-0.6,1.2c-1.1,2.1-2.8,4-5,3.6c-1.7-0.3,0-2.9-1.2-4.5c-1.8,1.8-2.9,4.6-6.2,4.9
	c-0.4-1.5,0.1-3.4-1.2-5c-1.7,2.7-3.7,5-7.2,5.3c-0.3-1.8,1.2-3.7-0.4-5.7c-1.5,3.4-4.4,15.8-6.3,11C15.8,23.6,21.3,11,31.9,9.6
	C42.4,8.2,52.2,15,53.2,25.4c0,0.8,0.6,5-0.4,5.5c-0.9,0.4-1.8,0.1-2.5-0.5C48.2,28.4,47.8,22,46.6,19.3z"/>
<path d="M16.1,65.7h39.3c0,0,0.9-14.3-8-19.4c0,0-8.3,6.7-11.7,6.7c-3.5,0-12.3-6.7-12.3-6.7S14.8,49.7,16.1,65.7z"/>
<path d="M35.5,45.9c-9.7,0-17.6-7.9-17.6-17.6s7.9-17.6,17.6-17.6s17.6,7.9,17.6,17.6S45.2,45.9,35.5,45.9z M35.5,12.6
	c-8.6,0-15.7,7-15.7,15.7S26.9,44,35.5,44c8.6,0,15.7-7,15.7-15.7S44.2,12.6,35.5,12.6z"/>
<circle cx="41.1" cy="26.4" r="1.5"/>
<circle cx="29.9" cy="26.4" r="1.5"/>
<path d="M41.3,39c-1.5,1-2.1,2.4-4.2,2.3c-0.5,0-1-0.1-1.4,0c-0.4-0.1-1,0-1.4,0c-2.1,0.1-2.9-1.3-4.2-2.3c-1,2,0.6,3.7,3.3,4.3
	c0.2,0,0.7,0.2,0.9,0.2c0.5,0,1,0.2,1.4,0.1c0.4,0.1,0.9-0.1,1.4-0.1c0.2,0,0.7-0.2,0.9-0.2C40.7,42.7,42.4,40.3,41.3,39z"/>
<rect x="30.7" y="36.5" width="9.9" height="1.3"/>
<path fill="#19181C" d="M42.3,37.1c-1-1.5-2-2.9-4.1-2.8c-1.1,0-2.6,0.3-2.2-1.6c0.3-1.7,1.7-0.5,2.5-0.7c0.2,0,0.4,0,0.6,0
	C41.7,32.7,42.7,34.5,42.3,37.1"/>
<path fill="#19181C" d="M28.8,37.1c1-1.5,2-2.9,4.1-2.8c1.1,0,2.6,0.3,2.2-1.6c-0.3-1.7-1.7-0.5-2.5-0.7c-0.2,0-0.4,0-0.6,0
	C29.3,32.7,28.4,34.5,28.8,37.1"/>
</svg>
