<?xml version="1.0" encoding="utf-8"?>
<!-- Generator: Adobe Illustrator 17.1.0, SVG Export Plug-In . SVG Version: 6.00 Build 0)  -->
<!DOCTYPE svg PUBLIC "-//W3C//DTD SVG 1.1//EN" "http://www.w3.org/Graphics/SVG/1.1/DTD/svg11.dtd">
<svg version="1.1" id="Layer_1" xmlns="http://www.w3.org/2000/svg" xmlns:xlink="http://www.w3.org/1999/xlink" x="0px" y="0px"
	 viewBox="0 0 72 72" enable-background="new 0 0 72 72" xml:space="preserve">
<path d="M19.4,65.7h34.3c0,0,0.8-12.4-7-16.9l-10.2,5.8l-10.7-5.8C25.8,48.8,18.3,51.8,19.4,65.7z"/>
<path d="M36.4,48.5c-8.5,0-15.3-6.9-15.3-15.3c0-8.5,6.9-15.3,15.3-15.3c8.5,0,15.3,6.9,15.3,15.3C51.7,41.6,44.8,48.5,36.4,48.5z
	 M36.4,19.5c-7.5,0-13.7,6.1-13.7,13.7s6.1,13.7,13.7,13.7S50,40.7,50,33.1S43.9,19.5,36.4,19.5z"/>
<circle cx="41.3" cy="31.4" r="1.3"/>
<circle cx="31.5" cy="31.4" r="1.3"/>
<path d="M47.8,24.5c0.7-4-4.5-11.3-4.5-11.3c0,1.4-2.7,4-2.7,4c-0.1-3.6-6.3-8.5-6.3-8.5c1.9,2.5-4.5,9.8-4.5,9.8
	c-1.2-5-8-4.2-8-4.2c1.7,0.7,3.7,4.8,1.8,10.1c3.2-2.8,7.5-5.5,12.1-5.5C40.3,19,44.6,21.8,47.8,24.5z"/>
<path d="M45.2,34.2h-7.9v-5.5h7.9V34.2z M38.4,33.1h5.6v-3.2h-5.6V33.1z"/>
<path d="M35.4,34.2h-7.9v-5.5h7.9V34.2z M28.7,33.1h5.6v-3.2h-5.6V33.1z"/>
<rect x="34.8" y="30.9" width="3" height="1.1"/>
<path d="M41.2,42.4c-1.3,0.9-1.8,2.1-3.7,2c-0.4,0-0.9-0.1-1.2,0c-0.4-0.1-0.8,0-1.2,0c-1.8,0.1-2.5-1.1-3.7-2
	c-0.9,1.7,0.5,3.2,2.9,3.7c0.2,0,0.6,0.2,0.8,0.2c0.4,0,0.8,0.2,1.2,0.1c0.4,0.1,0.8-0.1,1.2-0.1c0.2,0,0.6-0.2,0.8-0.2
	C40.7,45.7,42.2,43.6,41.2,42.4z"/>
<rect x="31.8" y="40.3" width="8.7" height="1.1"/>
</svg>
